<svg xmlns="http://www.w3.org/2000/svg" class="wood-ink" viewBox="-372 -369 730 733" width="438" height="440" role="img" aria-labelledby="gbe1f41a-t gbe1f41a-d" data-round="II-2" data-r-outer="358"><title id="gbe1f41a-t">Ring 3 of II.2, Of the Breath of the Wood, carved whole in the grain</title><desc id="gbe1f41a-d">A ring plate: the one ring re-laid at reading scale, as Seren reads the round; runners to other rings end at its edge.</desc><style>:root.wood-ink{color:#dcc9a2}.g2a{fill-opacity:var(--a,1)}.g2b{fill-opacity:var(--b,1)}.g2c{fill-opacity:var(--c,1)}.g2d{fill-opacity:var(--d,1)}.g2e{fill-opacity:var(--e,1)}.g2f{fill-opacity:var(--f,1)}.g2g{fill-opacity:var(--g,1)}.g2h{fill-opacity:var(--h,1)}.g2f{fill-opacity:var(--f,1)}.g2c{fill-opacity:var(--c,1)}.g2v{fill-opacity:var(--v,1);stroke-width:1}.g2e0{stroke:var(--k,#000);stroke-opacity:var(--o0,1);stroke-width:var(--w0,3.6)}.g2e1{stroke:var(--k,#000);stroke-opacity:var(--o1,1);stroke-width:var(--w1,3.6)}.g2e2{stroke:var(--k,#000);stroke-opacity:var(--o2,1);stroke-width:var(--w2,3.6)}.g2e3{stroke:var(--k,#000);stroke-opacity:var(--o3,1);stroke-width:var(--w3,3.6)}</style><defs><path id="gbe1f41a-o" fill-rule="evenodd" clip-rule="evenodd" d="M0-355c3 0 6 0 9 1s6 0 10 0s6 0 9 1s6 0 9 0s6 1 9 2s6 0 9 1s7 1 10 2s6 1 9 1s6 2 9 2s6 2 9 3s6 1 9 2s6 2 9 3s5 2 8 3s6 2 9 3s6 3 9 4s5 2 8 4s6 2 8 4s6 2 9 4s5 3 8 4s5 3 8 5s5 3 8 5s5 3 7 5s5 3 8 5s5 4 7 6s5 3 8 5s4 4 7 6s4 4 7 6s4 4 7 6s4 5 6 7s5 4 7 6s4 5 6 7s4 5 6 7s4 5 6 7s3 5 5 7s4 5 6 8s3 5 5 7s4 5 5 8s4 5 5 8s3 5 5 7s3 6 5 8s2 6 4 8s3 6 4 9s3 5 4 8s2 5 3 8s3 6 4 9s2 5 3 8s2 6 3 9s1 6 2 9s2 6 2 9s2 5 2 8s2 6 2 9s1 6 2 9s1 6 1 9s1 6 2 9s0 6 1 9s0 6 0 9s1 6 1 9s0 6 0 9s0 6 0 9s0 6 0 9s0 6-1 9s0 6 0 9s-1 6-1 9s-1 6-1 9s-1 6-1 9s-1 5-2 8s-1 6-2 9s-1 6-2 9s-1 6-2 9s-1 5-2 8s-2 6-3 9s-1 5-2 8s-2 6-3 9s-2 5-4 8s-2 5-3 8s-2 5-4 8s-2 6-4 8s-2 5-4 8s-2 5-4 8s-3 5-4 8s-3 5-5 7s-3 5-5 8s-3 5-5 7s-3 5-5 7s-4 5-5 7s-4 5-6 7s-4 5-6 7s-4 4-6 6s-4 5-6 7s-4 4-6 6s-4 4-6 6s-5 4-7 6s-4 4-6 6s-5 4-7 6s-5 4-7 6s-4 3-7 5s-4 4-7 6s-5 3-7 5s-5 3-7 5s-5 3-8 5s-5 3-7 5s-6 3-8 4s-5 3-8 4s-5 3-8 4s-5 3-8 4s-5 3-8 4s-6 2-8 4s-6 2-9 3s-5 2-8 3s-6 2-9 3s-5 2-8 3s-6 2-9 3s-6 1-9 2s-6 1-9 2s-6 1-9 2s-6 1-9 1s-6 1-9 1s-6 1-9 1s-6 1-9 1s-6 0-9 0s-6 0-9 0s-6 0-9 0s-6 0-9 0s-7-1-10-1s-6-1-9-1s-6-1-9-1s-6-1-9-2s-6-1-9-1s-6-2-9-2s-6-2-9-3s-6-1-8-2s-6-2-9-3s-6-2-9-3s-6-2-9-3s-5-2-8-3s-6-3-9-4s-5-2-8-4s-5-2-8-4s-6-2-8-4s-6-3-8-4s-6-3-8-5s-6-3-8-5s-5-3-8-5s-5-3-7-5s-5-4-8-5s-5-4-7-6s-5-4-7-6s-5-4-7-6s-5-4-7-6s-5-4-7-6s-4-4-6-7s-5-4-7-6s-4-5-6-7s-4-5-6-7s-4-5-6-7s-4-5-6-7s-4-5-5-8s-4-5-6-7s-3-5-5-8s-3-5-5-8s-3-5-4-8s-3-5-5-8s-3-6-4-8s-3-6-4-9s-3-5-4-8s-2-6-4-9s-2-5-3-8s-2-6-3-9s-2-6-3-9s-2-6-3-9s-2-6-3-9s-1-6-2-9s-1-6-2-9s-1-6-2-9s-1-6-1-9s-1-7-1-10s-1-6-1-9s-1-6-1-9s0-7 0-10s0-6 0-9s0-6 0-9s0-7 0-10s0-6 1-9s0-6 1-9s0-7 1-10s1-6 1-9s1-6 2-9s1-6 2-9s2-6 2-9s2-6 3-9s2-6 3-9s1-6 3-9s2-6 3-9s2-6 3-8s2-6 4-9s2-6 3-9s3-5 4-8s3-5 5-8s3-6 4-8s3-6 5-8s3-6 5-8s3-6 5-8s3-5 5-8s3-5 5-7s4-5 6-8s3-5 5-7s4-5 6-8s4-4 6-7s4-4 6-7s4-4 7-6s4-5 6-7s5-4 7-6s4-5 7-7s5-4 7-6s5-4 7-5s5-4 8-6s5-4 7-5s6-4 8-5s5-4 8-5s5-4 8-5s5-3 8-5s6-3 8-4s6-3 9-4s5-3 8-4s6-3 9-4s6-2 8-3s6-2 9-3s6-2 9-3s6-2 9-3s6-2 9-2s6-2 9-3s6-1 9-1s6-2 9-2s6-1 9-1s7-1 10-2s6 0 9-1s6 0 9 0s6-1 9-1s7 0 10 0s6-1 9-1zM-6-229c-2 0-4 0-6 0s-4 0-6 1s-4 0-6 0s-4 0-6 1s-4 0-6 0s-4 1-6 1s-4 1-6 1s-4 1-6 2s-4 1-5 1s-4 1-6 2s-4 1-6 1s-4 1-6 2s-4 1-5 2s-4 2-6 2s-4 2-6 3s-3 1-5 2s-4 2-5 3s-4 2-6 3s-3 2-5 3s-3 2-5 3s-4 2-5 3s-4 2-5 3s-4 3-5 4s-4 2-5 3s-3 3-5 4s-3 3-4 4s-3 3-5 4s-3 3-4 4s-3 3-5 4s-2 3-4 5s-2 3-4 4s-2 3-3 5s-3 3-4 5s-3 3-4 4s-2 4-3 5s-3 4-4 5s-2 3-3 5s-2 3-4 5s-2 4-3 5s-2 4-3 6s-2 3-2 5s-2 3-3 5s-2 4-3 6s-1 3-2 5s-2 4-3 6s-1 3-2 5s-1 4-2 6s-1 4-2 6s-1 3-2 5s-1 4-1 6s-1 4-2 6s-1 4-1 6s-1 4-1 6s-1 4-1 6s-1 4-1 6s0 4-1 6s0 4 0 6s0 4 0 6s0 4 0 6s0 4 0 6s0 4 0 6s0 4 1 6s0 4 0 6s1 4 1 6s0 4 1 6s1 4 1 6s1 4 1 6s1 4 2 6s1 4 1 6s2 3 2 5s2 4 2 6s2 4 2 6s2 3 3 5s1 4 2 6s2 3 3 5s1 4 2 6s2 3 3 5s2 3 3 5s2 4 3 5s2 4 3 5s2 4 3 5s3 4 4 5s2 4 3 5s3 3 4 5s2 3 4 5s2 3 4 4s2 3 4 4s3 3 4 5s3 2 4 4s3 2 5 4s3 2 4 4s3 2 5 4s3 2 4 3s3 3 5 4s3 2 5 3s3 3 5 4s3 2 5 3s3 2 5 3s3 2 5 3s3 2 5 3s3 2 5 3s4 1 6 2s3 2 5 3s4 1 5 2s4 1 6 2s4 1 6 2s3 1 5 2s4 1 6 2s4 1 5 1s4 1 6 2s4 1 6 1s4 1 6 1s4 1 6 1s4 1 6 1s3 0 5 1s4 0 6 0s4 0 6 0s4 0 6 0s4 0 6 0s4 0 6 0s4 0 6 0s4-1 6-1s4-1 5-1s4 0 6-1s4-1 6-1s4-1 6-1s4-1 5-2s4-1 6-1s4-2 6-2s3-2 5-2s4-2 5-2s4-2 6-3s3-1 5-2s4-2 5-2s4-2 6-3s3-2 5-3s3-1 5-2s3-2 5-3s3-2 5-3s3-2 4-3s3-3 5-4s3-2 5-3s3-2 4-4s3-2 5-3s2-3 4-4s3-2 4-4s3-2 4-3s3-3 5-4s2-3 4-4s2-3 4-4s2-3 4-4s2-3 3-5s3-3 4-4s3-3 4-4s2-3 3-5s3-3 4-5s2-3 3-4s2-3 3-5s2-3 3-5s2-3 3-5s2-3 2-5s2-3 3-5s2-3 3-5s1-4 2-5s1-4 2-6s2-3 2-5s2-4 2-5s2-4 2-6s1-3 2-5s1-4 1-6s1-4 2-5s0-4 1-6s1-4 1-6s1-3 1-5s1-4 1-6s0-4 0-6s1-4 1-5s0-4 1-6s0-4 0-6s0-4 0-6s0-4 0-6s0-3 0-5s0-4 0-6s-1-4-1-6s0-4-1-6s0-4 0-6s-1-3-1-5s-1-4-1-6s-1-4-1-6s-1-4-2-5s-1-4-1-6s-1-4-2-6s-1-4-2-5s-1-4-1-6s-2-4-3-5s-1-4-2-6s-2-3-2-5s-2-4-3-6s-2-3-3-5s-2-3-3-5s-2-3-3-5s-2-3-3-5s-2-3-3-5s-3-3-4-5s-2-3-3-4s-3-3-4-5s-2-3-4-5s-2-3-3-4s-3-3-4-5s-3-2-5-4s-2-3-4-4s-3-3-4-4s-3-3-5-4s-3-2-4-4s-3-2-5-3s-3-3-5-4s-3-2-5-3s-3-2-5-4s-3-2-5-3s-3-2-5-3s-3-2-5-3s-4-2-6-2s-3-2-5-3s-4-2-5-2s-4-2-6-3s-4-1-6-2s-3-1-5-2s-4-1-6-2s-4-1-6-1s-4-1-6-2s-3-1-5-1s-4-1-6-1s-4-1-6-1s-4-1-6-1s-4-1-6-1s-4 0-6 0s-4-1-6-1s-4 0-6 0s-4 0-6 0s-4 0-6 0z"/><symbol id="gbe1f41a-s0" overflow="visible"><path class="g2e0" fill="none" d="M2.7-4.5l5.6 .4 2.2-1.3 2.5-.5 2.4 .5 2.2 1.3 5.6-.4M2.7-4.5l-.2-6.6 4.8-2.8 5.7-1.1 5.6 1.1 4.8 2.8-.2 6.6M2.7 4.5l-.2 6.6 4.8 2.8 5.7 1.1 5.6-1.1 4.8-2.8-.2-6.6M2.7 4.5l5.6-.4 2.2 1.3 2.5 .5 2.4-.5 2.2-1.3 5.6 .4M6.2 0l3.7 3.6 3.7 0 3.7-3.6M6.2 0l3.7-3.6 3.7 0 3.7 3.6M13.4 0l-.8 3.7 3.7 .6M13.4 0l3.8 .6-.9 3.7M16.8 7.2l0 4.4 2.2 2.7 4.3 1.1M16.8 7.2l4.3 1 2.2 2.7 0 4.5"/></symbol><symbol id="gbe1f41a-s1" overflow="visible"><path class="g2a" d="M11.2-20.6l.5 8.2 .3 12.4-.3 12.4-.5 8.2-2.5-4.3-.8-4.1 .3-12.2-.3-12.2 .8-4.1z"/><path class="g2b" d="M12 10.6l-3.3 1.4-2.2 3-1.7 3.2-.2-4.4 2.6-3.6z"/><path class="g2c" d="M12 1.4l-2.7 .9 .3-2.5 2.4 1.6zM2.9 28.6l18.2 0-3.6-2.1-11 0z"/><path class="g2d" d="M12-11l-3.5-6.2-4.2-5.8 4 1.5 2.1 3 1.9 3.2zM9.3 2.3l-2.1-1.3 0 0 2.4-1.2zM11.5 7.2l6.5 8.2-.4-4.2-2.1-2.7z"/><path class="g2e" d="M11.2-20.6l.5 8.2 .3 12.4-.3 12.4-.5 8.2 3-3.9 1.3-4.1 .3-12.6-.3-12.6-1.3-4.1z"/><path class="g2f" d="M12 10.6l-3.3 1.4-2.2 3-1.7 3.2 3.6-2 1.7-2.3z"/><path class="g2g" d="M12 1.4l-2.7 .9-.3 2.5 3-3.4zM2.9 28.6l18.2 0-3.6 2-11 0z"/><path class="g2h" d="M12-11l-3.5-6.2-4.2-5.8 .3 4.1 3.7 5.9zM9.3 2.3l-2.1-1.3 0 0 1.8 3.8zM11.5 7.2l6.5 8.2-3.9-1.3-2.2-2.8z"/></symbol><symbol id="gbe1f41a-s2" overflow="visible"><path class="g2b" d="M6.2 0l1.6-2.4 1.2-.8-2.3-.4-1.1 1.4z"/><path class="g2c" d="M.4 0l9.1 0-1.8-1.6-5.5 0z"/><path class="g2d" d="M4.4 0l1.7 2.7 1.3 .9-.2-2-.7-1z"/><path class="g2f" d="M6.2 0l1.6-2.4 1.2-.8-.1 2-.6 .8z"/><path class="g2g" d="M.4 0l9.1 0-1.8 1.6-5.5 0z"/><path class="g2h" d="M4.4 0l1.7 2.7 1.3 .9-2.4 .3-1.2-1.6z"/></symbol><symbol id="gbe1f41a-s3" overflow="visible"><path class="g2a" d="M5 0l1 5.1-3.4-2zM9 8.2l.5 1.8-1.4-.2 .4-1.4zM5.4 7.4l-.5-1.8-1.4-.2 .5 1.3 .8 1z"/><path class="g2b" d="M9.5 10l-.2 .5-1-1.3-.2 .6zM4.9 5.6l.2-.5-1-1.2-.6 1.5z"/><path class="g2c" d="M.8 0l8.4 0-2.8-3-2.8 0zM9.3 10.5l-.5 .1-.8-.3 .5-.9 .4-.2-.6 0zM5.1 5.1l.5-.1 .8 .4 .5-.9-1.1-.8-1.7 .2z"/><path class="g2d" d="M8 10.3l-2-1.6-.6-1.3 .5-.2 .2 .9 .5 .8 1.9 .5zM8.4 6.9l.6 1.3 .6-.2-.9-1.3zM6.4 5.4l2 1.5 .3-.2-1.8-2.2z"/><path class="g2e" d="M5 0l1 5.1 2.4-3.1zM5.4 7.4l-.5-1.8 1.4 .2-.4 1.4zM9 8.2l.5 1.8 1.4 .2-.5-1.3-.8-.9z"/><path class="g2f" d="M4.9 5.6l.2-.5 1 1.3 .2-.6zM9.5 10l-.2 .5 1 1.3 .6-1.6z"/><path class="g2g" d="M.8 0l8.4 0-2.8 3-2.8 0zM5.1 5.1l.5-.1 .8 .4-.5 .9-.4 .1 .6 0zM9.3 10.5l-.5 .1-.8-.3-.5 .9 1.1 .8 1.7-.2z"/><path class="g2h" d="M8.4 6.9l.6 1.3-.5 .2-.4-1.3zM6.4 5.4l2 1.5-.3 .2-1.2-.7-1-.1zM8 10.3l-2-1.6-.6-1.3-.6 .3 2.7 3.5z"/></symbol><symbol id="gbe1f41a-s4" overflow="visible"><path class="g2a" d="M8.8-20.1l.8 16-.3 16.1-3-4.1-.5-4-.3-15.8 .4-4zM10.7 7.7l-1.4 3.9-.5 2.9-.2 3.3 .2 3.2 .5 3 1.4 3.8-.4 .2-1.7-3.9-.7-3-.3-3.3 .3-3.4 .7-3 1.7-3.9zM11.4 27.8l1.4-3.8 .5-3 .1-3.2-.1-3.3-.5-2.9-1.4-3.9-.3 .2 1 3.8 .3 6.1-.3 6-1 3.8z"/><path class="g2b" d="M11 7.2l-.3 .5-.4-.2 .7-.9zM11 28.3l.4-.5-.3-.2-.1 .1z"/><path class="g2d" d="M11.4 7.7l-.4-.5 0-.6 .7 .9zM10.7 27.8l.3 .5 0-.6 0-.1zM13 7.2l6.4 8.2-.3-4.2-2.2-2.7z"/><path class="g2e" d="M8.8-20.1l.8 16-.3 16.1 3.4-3.9 .7-4.1 0-8.1-.3-8.2-.8-4zM11.4 27.8l1.4-3.8 .5-3 .1-3.2-.1-3.3-.5-2.9-1.4-3.9 .3-.2 1.8 3.9 .7 3 .2 3.4-.2 3.3-.7 3-1.8 3.9zM10.7 7.7l-1.4 3.9-.5 2.9-.2 3.3 .2 3.2 .5 3 1.4 3.8 .3-.2-1-3.8-.4-6 .4-6.1 1-3.8z"/><path class="g2f" d="M11 28.3l.4-.5 .3 .2-.7 .9zM11 7.2l-.3 .5 .3 .2 0-.1z"/><path class="g2h" d="M10.7 27.8l.3 .5 0 .6-.7-.9zM11.4 7.7l-.4-.5 0 .6 .1 .1zM13 7.2l6.4 8.2-3.9-1.3-2.2-2.8z"/></symbol><symbol id="gbe1f41a-s5" overflow="visible"><path class="g2b" d="M2.7-4.5l2.7-3.1 3.5-2.1-1.3-3.6-4.7 2.7zM17 9.7l3.5-2.1 2.7-3.1-5.1 .1-2.5 1.5z"/><path class="g2c" d="M8.9-9.7l4.1-.7 4 .7 1.3-3.6-5.3-1-5.4 1zM8.9 9.7l4.1 .7 4-.7-1.4-3.6-2.6 .5-2.7-.5zM6.2 0l11.1 0-3.7-3-3.7 0z"/><path class="g2d" d="M17-9.7l3.5 2.1 2.7 3.1-.2-6.1-4.7-2.7zM2.7 4.5l2.7 3.1 3.5 2.1 1.4-3.6-2.4-1.5zM13.4 0l2.9 4.3 .5-3.4zM16.8 7.2l6.5 8.2-.4-4.2-2.2-2.7z"/><path class="g2f" d="M2.7-4.5l2.7-3.1 3.5-2.1 1.4 3.6-2.4 1.5zM17 9.7l3.5-2.1 2.7-3.1-.2 6.1-4.7 2.7z"/><path class="g2g" d="M8.9-9.7l4.1-.7 4 .7-1.4 3.6-2.6-.5-2.7 .5zM8.9 9.7l4.1 .7 4-.7 1.3 3.6-5.3 1-5.4-1zM6.2 0l11.1 0-3.7 3-3.7 0z"/><path class="g2h" d="M17-9.7l3.5 2.1 2.7 3.1-5.1-.1-2.5-1.5zM2.7 4.5l2.7 3.1 3.5 2.1-1.3 3.6-4.7-2.7zM13.4 0l2.9 4.3-3.3-.9zM16.8 7.2l6.5 8.2-4-1.3-2.1-2.8z"/></symbol><symbol id="gbe1f41a-s8" overflow="visible"><path class="g2a" d="M5.1-15.3l.7 7.1-2.8-2.1-.2-2.3zM5.1 15.3l.7-7.1-2.8 2.1-.2 2.3z"/><path class="g2e" d="M5.1-15.3l.7 7.1 2.6-2.6-.3-2.5zM5.1 15.3l.7-7.1 2.6 2.6-.3 2.5z"/><path class="g2c" d="M1.6 0l-.2-2.8 0 5.6 .2-2.8zM1.9-2.8l.5-2.4 0 5.3-.6-.5zM1.9 2l.4 .5 .1 2.7-.2-2.3zM2.7-5.2l.6-2 0 6.8-.6-.2zM2.7 1.9l.6 .2 0 5.1-.5-2zM3.7-7.3l.4-1.8-.1 4-.4 .6zM3.6-2l.5-.7 0 5.5-.5-.7zM3.6 4.6l.4 .7 .1 3.8-.4-1.8zM4.4-9.1l.5-1.7-.1 4.6-.4 .7zM4.3-3.1l.6-.7 0 8-.6-.8zM4.4 5.9l.4 .8 .1 4.1-.5-1.7zM5.2-10.8l.4-1.6-.1 4.4-.4 .7zM5-4.8l.6-.8 0 11.6-.6-.8zM5.1 7.7l.4 .8 .1 3.9-.4-1.6z"/><path class="g2v" d="M.4 0l.5-1.9 .5-1.6 .6-1.4 .5-1.3 .5-1.3 .6-1.3 .5-1.2 .5-1.3 .6-1.1 .5-1.2 0 27.2-.5-1.2-.6-1.1-.5-1.3-.5-1.2-.6-1.3-.5-1.3-.5-1.3-.6-1.4-.5-1.6-.5-1.9z"/><path class="g2e0" fill="none" d="M5.6 5.1l-.2 3.3 1.5 1.9 3.3 .6M5.6 5.1l3.2 .6 1.5 1.9-.1 3.3"/><path class="g2e2" fill="none" d="M.4 0l.5-1.9 .5-1.6 .6-1.4 .5-1.3 .5-1.3 .6-1.3 .5-1.2 .5-1.3 .6-1.1 .5-1.2M.4 0l.5 1.9 .5 1.6 .6 1.4 .5 1.3 .5 1.3 .6 1.3 .5 1.2 .5 1.3 .6 1.1 .5 1.2"/></symbol><symbol id="gbe1f41a-s10" overflow="visible"><path class="g2a" d="M7.2-10.5l0 10.5-3-2.6 0-5.3 0 .4zM5 0l0-10.5-3-3 0 10.9 .1-.3z"/><path class="g2c" d="M7.2 0l-2.2 0 1.1-1.1-.7-.7zM.5 0l4.5 0-2.9-2.9 .6 1.1zM5-10.5l2.2 0 3-3-8.2 0z"/><path class="g2e" d="M5 0l0-10.5 3 3-.2 10.4zM7.2-10.5l0 10.5 1.8 1.8 1.2-4.4 0-10.9z"/><path class="g2g" d="M.5 0l4.5 0 2.8 2.9-5.1-1.1zM5-10.5l2.2 0-3 3 3.8 0zM7.2 0l-2.2 0 1.1 1.1 2.9 .7z"/></symbol><symbol id="gbe1f41a-s13" overflow="visible"><path class="g2a" d="M5.3-12.2l.2 12.2-.2 12.2-2.4-3.1-.4-3 0-12.2 .4-3z"/><path class="g2c" d="M.5 0l3.5 0-1.8-3z"/><path class="g2d" d="M5.4 5.1l4.6 5.8-.1-3.1-1.6-1.9z"/><path class="g2e" d="M5.3-12.2l.2 12.2-.2 12.2 2.6-2.9 .6-3.1 0-6.2 0-6.2-.6-3.1z"/><path class="g2g" d="M.5 0l3.5 0-1.8 3z"/><path class="g2h" d="M5.4 5.1l4.6 5.8-2.9-.8-1.6-2z"/></symbol><symbol id="gbe1f41a-s14" overflow="visible"><path class="g2a" d="M3.6-14.3l.4 9.8-.1 13-2.7-3.3-.3-12.9 .1-3.2zM4.4 5.5l-.5 2.7-.3 4.4 .3 4.4 .5 2.7-.3 .1-.6-2.8-.3-4.4 .3-4.5 .6-2.7zM4.8 19.7l.5-2.7 .3-4.4-.3-4.4-.5-2.7-.4 .1 .6 2.6 .2 4.4-.2 4.3-.6 2.7z"/><path class="g2b" d="M4.6 5.1l-.2 .4-.3-.1 .5-1zM4.6 20.1l.2-.4-.4-.1 .2-.2z"/><path class="g2d" d="M4.8 5.5l-.2-.4 0-.7 .5 1zM4.4 19.7l.2 .4 0-.7 .2 .2zM5.4 5.1l4.6 5.8-.1-3.1-1.6-1.9z"/><path class="g2e" d="M3.6-14.3l.4 9.8-.1 13 2.8-3.2 .3-3.3 0-6.6-.4-6.5zM4.8 19.7l.5-2.7 .3-4.4-.3-4.4-.5-2.7 .3-.1 .6 2.7 .3 4.5-.3 4.4-.6 2.8zM4.4 5.5l-.5 2.7-.3 4.4 .3 4.4 .5 2.7 .4-.1-.6-2.7-.2-4.3 .2-4.4 .6-2.6z"/><path class="g2f" d="M4.6 20.1l.2-.4 .3 .1-.5 1zM4.6 5.1l-.2 .4 .4 .1-.2 .2z"/><path class="g2h" d="M4.4 19.7l.2 .4 0 .7-.5-1zM4.8 5.5l-.2-.4 0 .7-.2-.2zM5.4 5.1l4.6 5.8-2.9-.8-1.6-2z"/></symbol><symbol id="gbe1f41a-s17" overflow="visible"><path class="g2a" d="M.4-10.5l.2 9-.2 12-2.7-3-.1-12 .1-3z"/><path class="g2c" d="M.6 0l5 0-2.5-3z"/><path class="g2d" d="M5.5 5.1l4.6 5.8-.1-3.1-1.5-1.9z"/><path class="g2e" d="M.4-10.5l.2 9-.2 12 2.9-2.9 .3-6.1 0-6.1-.3-3z"/><path class="g2g" d="M.6 0l5 0-2.5 3z"/><path class="g2h" d="M5.5 5.1l4.6 5.8-2.9-.8-1.6-2z"/></symbol><symbol id="gbe1f41a-s19" overflow="visible"><path class="g2a" d="M11.5 0l-.6 2.4-.9-.4 .7-.8 .5-1.2zM10.9-2.4l.6 2.4-.3 0-.5-1.2-.7-.8zM9.2 2.4l-.6-2.4 .6-2.4-.9-.4 0 5.6zM2.2-7.2l-1.7 7.2 1.7 7.2-3.1-3.1-.9-4.1 .9-4.1z"/><path class="g2b" d="M2.9 0l6.5-12-.8-6.5-7.3 13.8zM9.4 12l6.1-6.7-4.5 0-2.4 1.9 1.6-1.7zM10.9 2.4l-.8 1 0-1.6-.5 .3 .4-.1zM9.2-2.4l.9-1 0-1.6-1.4 .9-.4 1.3z"/><path class="g2d" d="M9.4-12l6.1 6.7 .4-4.5-1.7-2.5-5.6-6.2zM2.9 0l6.5 12 .8-6.5-2.5-4.2zM10.1 3.4l-.9-1 1-.4 .4 .1-.5-.3zM10.1-3.4l.8 1 1-.4-.4-1.3-1.4-.9zM15.1 7.2l6.5 8.2-.4-4.2-2.1-2.7z"/><path class="g2e" d="M9.2 2.4l-.6-2.4 .6-2.4 1 .4-.7 .8-.5 1.2 .5 1.2 .7 .8zM11.5 0l-.6 2.4 1 .4 0-2.8zM10.9-2.4l.6 2.4 .4 0 0-2.8zM2.2-7.2l-1.7 7.2 1.7 7.2 1.4-4.1-.7-3.1 .7-3.1z"/><path class="g2f" d="M2.9 0l6.5-12 .8 6.5-2.5 4.2zM9.4 12l6.1-6.7 .4 4.5-1.7 2.5-5.6 6.2zM9.2-2.4l.9-1 0 1.6 .5-.3-.4 .1zM10.9 2.4l-.8 1 0 1.6 1.4-.9 .4-1.3z"/><path class="g2h" d="M9.4-12l6.1 6.7-4.5 0-2.4-1.9 1.6 1.7zM2.9 0l6.5 12-.8 6.5-7.3-13.8zM10.1-3.4l.8 1-.9 .4-.4-.1 .5 .3zM10.1 3.4l-.9-1-.9 .4 .4 1.3 1.4 .9zM15.1 7.2l6.5 8.2-3.9-1.3-2.2-2.8z"/><path class="g2f" d="M11.5 0l-.1 .5-.2 .9-.3 1-.4 .7-.4 .3-.5-.3-.4-.7-.3-1-.2-.9-.1-.5 .1-.5 .2-.9 .3-1 .4-.7 .5-.3 .4 .3 .4 .7 .3 1 .2 .9z"/></symbol><symbol id="gbe1f41a-s20" overflow="visible"><path class="g2a" d="M4.6-14.6l.4 13-.4 16.2-2.1-3.3-.6-3.3 0-16 .6-3.3zM5-7.8l-2-5.7-1.7 .6 1.1 2.8zM3 9.8l-1 3.1 0 0-.6-3.9z"/><path class="g2b" d="M5 1l-1.2 .7 .5-2.3 .7 1.6zM5 7.5l-2 2.3-1.6-.8 3.6-1.5z"/><path class="g2d" d="M3-13.5l-1.2-2.8 0 0 2.9 2.1zM3.8 1.7l-.8-1 0 0 1.3-1.3zM4.8 5.1l4.6 5.8-.1-3.1-1.6-1.9z"/><path class="g2e" d="M4.6-14.6l.4 13-.4 16.2 2.5-3.1 .8-3.3 .1-6.6-.1-9.8-.8-3.3zM5-7.8l-2-5.7 1.7-.7 1.1 2.9zM3 9.8l-1 3.1 0 0 2.6-2.2z"/><path class="g2f" d="M5 1l-1.2 .7-.5 2.3 1.7-3zM5 7.5l-2 2.3 1.6 .9 .4-3.2z"/><path class="g2h" d="M3-13.5l-1.2-2.8 0 0-.5 3.4zM3.8 1.7l-.8-1 0 0 .3 3.3zM4.8 5.1l4.6 5.8-2.9-.8-1.6-2z"/></symbol><symbol id="gbe1f41a-s22" overflow="visible"><path class="g2a" d="M6.2-15.3l.4 13.6-.4 17-2.2-3.5-.6-3.4 0-16.8 .6-3.4z"/><path class="g2b" d="M1.1-18.5l1.5-2.6 0 1.7zM2.5-20.7l1.5-2.6 0 1.7zM4-22.9l1.4-2.6 0 1.7z"/><path class="g2d" d="M6.4 5.1l4.6 5.8-.1-3.1-1.6-1.9zM2.6-21.1l1.4 2.6-1.4-.9zM4-23.3l1.5 2.6-1.5-.9zM5.4-25.5l1.5 2.6-1.5-.9z"/><path class="g2e" d="M6.2-15.3l.4 13.6-.4 17 2.5-3.3 .7-3.4 .2-6.9-.2-10.3-.7-3.4z"/><path class="g2g" d="M4-18.5l-2.9 0 1.5-.9zM5.5-20.7l-3 0 1.5-.9zM6.9-22.9l-2.9 0 1.4-.9z"/><path class="g2h" d="M6.4 5.1l4.6 5.8-2.9-.8-1.6-2z"/></symbol><symbol id="gbe1f41a-s23" overflow="visible"><path class="g2c" d="M1 0l21.8 0-2.2-1.4-2.2-.6-13.1 0-2.2 .6z"/><path class="g2g" d="M1 0l21.8 0-2.2 1.4-2.2 .6-13.1 0-2.2-.6z"/><path class="g2e0" fill="none" d="M10.6 0l-.3 3.4 1.9 1.8 2.4 1.4 3.2-1.4M10.6 0l3.2 .1 1.4 1.3 1.5 .9 1.1 2.9M14.9 0l3.1 .2 1.3-1.1 1.4-.9 .9-2.8M14.9 0l-.2-3.2 1.8-1.6 2.1-1.3 3 1.5"/></symbol><path id="gbe1f41a-rl" d="M32.8-270.8l5.8 .6 3-.4 8.8-7.6 1.4-2.2-.6-2.8-2.6-5.2 .6-.4 2.8 5.4 .6 3.2-1.4 2.6-9.2 8.2-3.4 .4-3-.6zM-35.4 262.6l-14.8 9.4-10.8 9.8-.6 2.8 .4 .2 1.2-2.4 1.8-1.8 8.8-7.6 9.6-6.4 5.4-2.4zM-70.2 323.6l11.6 1.4 2.6 1.4-.2 .4-2.6-1.2-11.6-1.6zM-64.4 293l-.8 2.8-1.2 2.6-4.4 3.8-1.8 8.6-1.8 5.6 .6 2.6 .8-.2-.6-2.4 1.8-5.4 1.8-8.4 4.2-3.6 1.6-2.8 .4-3zM-212.8 163.6l-5.6-1.4 1.6 2.6 1-.6-.6-.4 3.2 1.6zM-215 167.2l1 2.6-.2 6-1.6 2.2-3 .2-11.6-2-3 .2-2.8 1-2.4 1.6 .2 .4 2.4-1.6 2.6-1 2.8 0 11.8 2.2 3.4 0 2.2-3 .4-6.4-1.2-3zM-244 175l2.4 .4-.2 .6-2.2-.6zM-239 178l.4 3.4-1.2 2.2-2 1.4 .2 .4 2.2-1.4 1.4-2.4 0-2.6-.4-1.4zM-260 61l-2.4 5.4 1.4-.2 2.8-4.4zM-260.8 68.8l1.8 8.6-.6 5.8-3.2 11.4-6.4 16.4-1.8 8.6 0 8.8 1.4 20.6 1.6 5.6 4.4 11 .6 5.8-1 5.8-1.8 5.6-2 5.6-1.6 2.4 .4 .2 1.6-2.4 1.2-2.8 2.6-8.4 1.2-6-.6-6-4.4-11-1.4-5.6-1.4-20.4 .2-8.6 1.8-8.4 6.4-16.4 3.4-11.4 .6-6.2-.4-3.2-1.4-5.8zM-275.8 192.8l2.8-2.2 2.4 0 2.2 .8-.4 .6-1.8-.8-2.2 .2-2.6 1.8zM-266.8 193.2l.4 3.6 .6 0 0-2.6-.4-1.2zM-267.2-46l-2.8-5.4 .2-3-.8-8.8 5-23.4 7.2-16.4 5-14 7.8-12.8 6.4-13.4 9-12 7.8-12.8 10-11 8.8-12 11-10.2 10.2-10.8 14.6-10.4 9-7.8 5.2-3.2 10.6-5.6 12.4-8.2 13.8-5.8 10.4-5.6 5.6-2.2 11.6-3 11.2-4.4 5.6-1.6 11.8-1.6 17.6-4 14.8-.8 14.8-2 15 .8 14.8-.4 6 1 11.4 3.6-.2 .6-11.4-3.6-5.8-1.2-14.8 .6-15-.8-14.6 2-15 .8-17.4 4-11.8 1.6-5.6 1.6-11.2 4.4-11.6 3-5.4 2.2-10.6 5.8-13.6 5.6-12.4 8.4-10.6 5.6-5 3-9 7.8-14.6 10.4-10 11-11 10-8.8 12-10 11-7.6 12.8-9 12-6.4 13.4-7.8 12.6-5 14-7 16.4-4.8 23 .6 11.6 3 4.6zM33.2-268.8l2.6-8 .4 0-1.2 4.2-1.4 3.8zM36.4-267.8l2.6-8 .4 0-1 4.2-1.6 3.8zM-267 57.2l2.8 1.2-.2 .4-2.8-1.2zM-267.6-43.2l-4.4 4.2-2.8 14.4-.6 6 .4 12-1 11.8 1.6 11.8 .4 14.8 2.8 11.6 1.4 8.8 .8 2.8 .4-.2-.8-2.6-1.2-9-2.8-11.4-.2-15-1.4-11.6 1-11.8 0-14.8 3.2-17 4.4-3.4zM-206.6 186.6l-2-5.6-.6-8.8 .4-.2 .6 9 2 5.4zM-40.4 293.6l-5.2 3-6-.4-5.6-1.8-.6 1.2 6 1.8 6.6 .4 5.8-2.6zM-87.2 270.2l-13.2-6.4-.6 .8 13.4 6.6zM-105.6 260.6l-5.2-2.8-11.2-4-5.2-2.6-.6 .8 5.4 2.8 11.2 4 5.2 2.8zM-134.8 246.4l-13.4-6.4-.4 .8 13.4 6.4zM-165 228l-2.6-1.4-.4 .6 2.6 1.4zM-210.8 169.8l-2.6-1.4-.2 .4 2.4 1.4zM-289.2 87l-2 5.6 1.4 2.6 2.6 8.6 3.6 8.2 1.6 5.6 1.6 20.8 3.4 14.4 2.4 14.6 1.4 20.8-.2 2.8 .6 3 .4-.2-.4-2.8 .2-2.8-1-18-2-14.6-4-17.4-1.4-20.8-1.6-5.8-2.4-5.6-3.6-11.2-1.2-2.2 2.4-4.8zM-285.2 130l-10.2-21.4-1-6-1.4-23.6 0-6 1.2-11.8 .2-6-1.8-14.6-.2-15-1.8-14.6-.4-6 1.2-14.8-.2-12 .4-5.8 3.8-17.4 1.6 .4-.2 .4-1.2-.2-.6 2.4-2.4 11.6-.8 5.8 .2 14.8-1.2 14.8 .4 5.8 1.8 14.8 .2 14.8 2 14.8-.2 6-1.4 11.8 .2 6 1.8 26.4 1.8 5.6 5.4 10.4 3.6 8.2zM-280.8 133.8l-2.6-1.4-.6 .6 2.6 1.6z"/><path id="gbe1f41a-rm" d="M37-266.6l-4.2-4.2 3 1.2 2.6 1.6zM48.6-288.4l-3.2-4.8-8-8.6 .4-.4 8 8.6 3.4 4.8zM37-266.6l-4.2-4.2-2.2-1 5 6.4zM48.6-288.4l-3.2-4.8-8-8.6-.4 .2 7.8 8.8 3.2 4.8zM-73.8 319l1.6 2.6 2 2-.2 .4-2.2-2-1.8-2.6zM-56 326.4l2 2.2-.4 .2-1.8-2zM-73.8 319l1.6 2.6 2 2 .4-.6-1.8-1.8-1.4-2.4zM-56 326.4l2 2.2 .4-.4-2-2.2zM-216.8 164.8l1.8 2.4-1 .4-1.8-2.2zM-216.8 164.8l1.8 2.4 1-.6-1.8-2.4zM-241.6 175.4l2.6 2.6-.8 .2-2-2.2zM-241.6 175.4l2.6 2.6 .6-.4-1.8-2-1.2-.6zM-262.4 66.4l1.6 2.4-1.2 .6-1.8-3zM-262.4 66.4l1.6 2.4 1.2-.4-1.4-2.2zM-268.4 191.4l1.6 1.8-.6 .4-1.4-1.6zM-268.4 191.4l1.6 1.8 .6-.2-1.6-2.2zM-269 55l2 2.2-.2 .4-2.2-2.2zM-269 55l2 2.2 .4-.4-2-2zM-57.2 294.4l-4.8-3.2-20.2-17.6-5-3.4 .6-1 5 3.6 20.4 17.4 4.6 3.2zM-100.4 263.8l-5.2-3.2 .6-.8 5 3zM-127.2 251.2l-7.6-4.8 .6-.8 7.4 4.8zM-148.2 240l-4.8-3.2-7-5.6-5-3.2 .4-.8 5 3.2 7 5.6 4.8 3.2zM-167.6 226.6l-7.4-5-8.4-8.4-11.4-9.6-3.6-4.6-8.2-12.4 .4-.2 8.2 12.2 3.6 4.6 11.4 9.4 8.6 8.4 7.2 4.8zM-209.2 172.2l-1.6-2.4 .2-.4 1.8 2.6zM-57.2 294.4l-4.8-3.2-20.2-17.6-5-3.4-.4 1 4.6 3.2 20.2 17.6 5 3.6zM-100.4 263.8l-5.2-3.2-.4 1 5 3zM-127.2 251.2l-7.6-4.8-.4 .8 7.4 4.8zM-148.2 240l-4.8-3.2-7-5.6-5-3.2-.4 .6 5 3.2 9.2 7.4 2.6 1.6zM-167.6 226.6l-7.4-5-8.4-8.4-11.4-9.6-3.6-4.6-8.2-12.4-.4 .2 8 12.6 3.8 4.6 11.4 9.6 8.4 8.4 7.4 5.2zM-209.2 172.2l-1.6-2.4-.4 .4 1.6 2.2zM-283.4 132.4l-1.8-2.4 .8-.4 1.6 2zM-293.8-44.6l4 4.4-.4 .4-3.8-4.4zM-283.4 132.4l-1.8-2.4-.8 .4 2 2.6zM-293.8-44.6l4 4.4 .4-.2-4-4.6z"/><path id="gbe1f41a-rs" d="M32.8-270.8l5.8 .6 3-.4 8.8-7.6 1.4-2.2-.6-2.8-2.6-5.2-.6 .4 2.4 5.2 .4 2.4-1.2 1.6-8.4 7.2-10.6-.2zM-35.4 262.6l-14.8 9.4-10.8 9.8-.6 2.8-.6 0 .4-3.4 11-10 12.2-8.4 2.2-1.8zM-64.4 293l-.8 2.8-1.2 2.6-4.4 3.8-1.8 8.6-1.8 5.6 .6 2.6-.6 .4-.6-3.2 1.8-5.6 1.6-8.8 4.4-4 2.4-5zM-70.2 323.6l11.6 1.4 2.6 1.4 .4-.4-2.8-1.4-11.4-1.6zM-212.8 163.6l-5.6-1.4 1.6 2.6-1 .6-2.6-4.6 8.2 1zM-215 167.2l1 2.6-.2 6-1.6 2.2-3 .2-11.6-2-3 .2-2.8 1-2.4 1.6-.4-.4 2.6-1.6 2.8-1.2 3.2-.2 11.8 1.6 2.2 0 1.2-1.8 .2-2.6 0-2.8-1-2.4zM-239 178l.4 2.2-.6 2.4-2.6 2.4-.2-.4 2.2-2.4 .6-2-.6-2zM-244 175l2.4 .4 .2-.4-2.6-.4zM-260 61l-2.4 5.4-1.4 0 2-6.2zM-260.8 68.8l1.8 8.6-.6 5.8-3.2 11.4-6.4 16.4-1.8 8.6 0 8.8 1.4 20.6 1.6 5.6 4.4 11 .6 5.8-1 5.8-2.6 8.4-2.8 5.2-.4-.2 1.6-2.4 2-5.4 1.6-5.8 1-5.6-.6-5.6-4.4-10.8-1.6-5.8-1.8-20.6 0-9 1.8-8.8 6.4-16.6 3-11.2 .6-5.4-1.8-8.2zM-266.8 193.2l.4 3.6-.4 0-.6-3.2zM-275.8 192.8l2.8-2.2 2.4 0 2.2 .8 .6-.6-2.6-1-2.8 .2-2.2 1.6-.8 1zM-267.2-46l-2.8-5.4 .2-3-.8-8.8 5-23.4 7.2-16.4 5-14 7.8-12.8 6.4-13.4 9-12 7.8-12.8 10-11 8.8-12 11-10.2 10.2-10.8 14.6-10.4 9-7.8 5.2-3.2 10.6-5.6 12.4-8.2 13.8-5.8 10.4-5.6 5.6-2.2 11.6-3 11.2-4.4 5.6-1.6 11.8-1.6 17.6-4 14.8-.8 14.8-2 15 .8 14.8-.4 6 1 11.4 3.6 0-.4-11.4-3.6-5.8-1-15 .2-15-.8-14.8 2-15 .8-17.4 4-11.8 1.6-6 1.6-11 4.2-11.6 3-5.6 2.4-10.6 5.6-13.8 5.6-12.6 8.4-10.6 5.4-5 3.2-9.2 7.8-9.8 6.6-4.8 3.8-10.2 11-11.2 10-8.8 12-10.2 11.2-7.6 12.8-9.2 12-6.6 13.4-7.6 12.8-5.2 14.2-7.2 16.4-5 23.8 .8 8.8-.2 3.4 2.4 5.8zM33.2-268.8l2.6-8-.4-.2-1.4 4-1.2 4zM36.4-267.8l2.6-8-.4-.2-1.4 4-1 4zM-267.6-43.2l-4.4 4.2-2.8 14.4-.6 6 .4 12-1 11.8 1.6 11.8 .4 14.8 2.8 11.6 1.4 8.8 .8 2.8-.4 .4-1-3-1.4-8.8-3-11.6-.4-15-1.8-11.8 1-12-.4-14.8 2.4-11.8 .2-3 .6-3.4 4.2-4.8zM-267 57.2l2.8 1.2 .2-.4-2.6-1.2zM-40.4 293.6l-5.2 3-6-.4-5.6-1.8 .6-1 5.2 1.4 5.4 .4 4.6-3.2zM-87.2 270.2l-13.2-6.4 .4-1 10.8 5 2.6 1.4zM-105.6 260.6l-5.2-2.8-11.2-4-5.2-2.6 .4-.8 5.2 2.6 11.2 4 5.4 2.8zM-134.8 246.4l-13.4-6.4 .4-.8 10.8 5 2.8 1.4zM-165 228l-2.6-1.4 .4-.8 2.6 1.4zM-210.8 169.8l-2.6-1.4 .2-.4 2.6 1.4zM-206.6 186.6l-2-5.6-.6-8.8-.4 .2 .4 8.8 2.2 5.6zM-289.2 87l-2 5.6 1.4 2.6 2.6 8.6 3.6 8.2 1.6 5.6 1.6 20.8 4 17.2 2.2 14.8 1 17.8-.2 2.8 .6 3-.4 0-.6-2.8 .2-3-1.6-20.6-2.6-14.6-3.6-14.6-1.8-20.6-1.4-5.4-3.6-8.2-2.8-8.4-1.6-3 1.6-6.4zM-280.8 133.8l-2.6-1.4 .6-.8 2.4 1.4zM-285.2 130l-10.2-21.4-1-6-1.4-23.6 0-6 1.2-11.8 .2-6-1.8-14.6-.2-15-1.8-14.6-.4-6 1.2-14.8-.2-12 .4-5.8 3.8-17.4 1.6 .4 .4-.4-2.4-.6-4 17.8-.4 6 .2 12-1.2 14.8 .4 6 1.8 14.6 0 15 1.8 14.8-1.6 20.6 1.6 26.8 1 6 1.2 2.8 5.4 10.6 3.6 8.2z"/><pattern id="gbe1f41a-st" patternUnits="userSpaceOnUse" width="60" height="60"><path fill="none" stroke="currentColor" stroke-opacity="0.3" stroke-width=".9" stroke-linecap="round" d="M45 56.7h0M17.4 57.8h0M55.3 15.4h0M49.3 13h0M26.6 17.9h0M43.6 31.6h0M11.9 19.8h0M54.8 37.5h0M12.1 28.7h0M16.5 28.7h0M27 35.4h0M51.3 3.4h0M1.5 5.9h0M48.4 18.2h0M52.4 26.5h0M6.8 4.8h0M48 49.9h0M51.6 22.5h0M25.8 1.2h0M38.7 49.4h0M25.3 31.3h0M37.3 42.1h0"/><path fill="none" stroke="currentColor" stroke-opacity="0.24" stroke-width="1.5" stroke-linecap="round" d="M23.2 25.1h0M12.2 29.8h0M3.2 18.8h0M38.7 36.5h0M4.6 10.6h0M44.3 42.5h0M30.6 39.3h0M21.8 39.7h0M41 41.6h0M27.5 56.8h0M55.3 37.9h0M23.6 54.5h0"/><path fill="none" stroke="currentColor" stroke-opacity="0.21" stroke-width=".6" d="M31.4 26.6l.6 3.6M3.8 12.4l-2.7 2.4M59.9 12.1l-3.4 1.1M32.2 38.5l-1.5 3.2M48.3 30.7l2.9 2.1M56.5 55.6l1.1 3.4"/></pattern><clipPath id="gbe1f41a-bk"><use href="#gbe1f41a-o"/></clipPath><mask id="gbe1f41a-m" maskUnits="userSpaceOnUse" x="-372" y="-369" width="730" height="733"><rect x="-372" y="-369" width="730" height="733" fill="#fff"/><g fill="#000" stroke="#000" stroke-width="3.4" stroke-linejoin="round"><use href="#gbe1f41a-rl" stroke-width="2.2"/><use href="#gbe1f41a-rm" stroke-width="2.2"/><use href="#gbe1f41a-rs" stroke-width="2.2"/><use href="#gbe1f41a-s0" transform="matrix(.1425 -.9898 .9898 .1425 35.07 -243.6)"/><use href="#gbe1f41a-s1" transform="matrix(-.1281 .9918 -.9918 -.1281 -31.12 240.86)"/><use href="#gbe1f41a-s2" transform="matrix(-.7894 .6138 -.6138 -.7894 -187.38 158.48)"/><use href="#gbe1f41a-s2" transform="matrix(-.7894 .6138 -.6138 -.7894 -193.57 150.52)"/><use href="#gbe1f41a-s2" transform="matrix(-.7894 .6138 -.6138 -.7894 -199.76 142.56)"/><use href="#gbe1f41a-s3" transform="matrix(-.7894 .6138 -.6138 -.7894 -203.58 158.3)"/><use href="#gbe1f41a-s4" transform="matrix(-.9748 .2231 -.2231 -.9748 -241.53 55.28)"/><use href="#gbe1f41a-s5" transform="matrix(-.9864 -.1646 .1646 -.9864 -244.63 -40.82)"/><use href="#gbe1f41a-s8" transform="matrix(.1167 -.9932 .9932 .1167 32.59 -277.32)"/><use href="#gbe1f41a-s10" transform="matrix(.1167 -.9932 .9932 .1167 33.93 -288.67)"/><use href="#gbe1f41a-s13" transform="matrix(-.1316 .9913 -.9913 -.1316 -36.27 273.14)"/><use href="#gbe1f41a-s14" transform="matrix(-.1316 .9913 -.9913 -.1316 -37.75 284.31)"/><use href="#gbe1f41a-s17" transform="matrix(-.8048 .5936 -.5936 -.8048 -224.01 165.22)"/><use href="#gbe1f41a-s14" transform="matrix(-.8048 .5936 -.5936 -.8048 -233.17 171.97)"/><use href="#gbe1f41a-s19" transform="matrix(-.9589 .2838 -.2838 -.9589 -269.03 79.64)"/><use href="#gbe1f41a-s20" transform="matrix(-.1679 .9858 -.9858 -.1679 -51.36 301.51)"/><use href="#gbe1f41a-s22" transform="matrix(-.1679 .9858 -.9858 -.1679 -53.53 314.22)"/><use href="#gbe1f41a-s23" transform="matrix(-.7854 .619 -.619 -.7854 -233.45 202.3)"/><use href="#gbe1f41a-s23" transform="matrix(-.7854 .619 -.619 -.7854 -242.36 190.99)"/><use href="#gbe1f41a-s23" transform="matrix(-.7854 .619 -.619 -.7854 -251.27 179.68)"/></g><g fill="none" stroke="#000" stroke-width="3.6" stroke-linecap="round"></g></mask></defs><g fill="currentColor"><g mask="url(#gbe1f41a-m)"><use href="#gbe1f41a-o" fill-opacity="0.075"/><use href="#gbe1f41a-o" fill="url(#gbe1f41a-st)"/><path fill-opacity="0.12" d="M-171 192c-2 0-8-2-11-4s-7-4-10-7s-6-4-9-7s-6-5-9-8s-5-6-8-9s-4-6-6-9s-5-7-7-10s-4-7-6-10s-4-7-5-11s-4-7-5-10s-3-8-4-11s-3-8-4-11s-3-8-4-11s-2-8-3-12s-1-8-2-11s0-8 0-12s-1-8 0-12s2-10 3-12s-1-1 0 0s3 8 4 11s3 8 4 11s2 7 4 11s2 7 4 10s3 7 4 11s2 6 3 10s3 7 4 10s3 7 4 10s3 7 4 10s4 7 5 10s4 6 6 9s4 7 6 10s4 5 6 8s5 6 7 9s4 7 6 10s4 6 6 9s5 5 7 8s5 9 6 10s2 1 0 0z"/><path fill="none" stroke="currentColor" stroke-opacity="0.22" stroke-width=".7" stroke-linecap="round" d="M-35-274c2 0 6-1 9-1s5 0 8-1s5 0 8 0s6 0 9 0s5 0 8 0s6 0 8 0s6 1 9 1s5 0 8 1s6 0 9 1s5 1 8 1s5 1 8 2s6 1 8 2s6 1 8 2s6 1 8 2s6 2 8 3s7 2 8 3M30 269c-1 0-5 1-8 1s-6 1-8 1s-6 0-9 1s-5 0-8 0s-5 0-8 0s-6 0-8 0s-6-1-9-1s-5-1-8-1s-5-1-8-1s-6-1-8-1s-6-1-8-2s-6-1-8-2s-6-1-8-2s-6-2-8-3s-6-1-8-2s-7-3-8-3M-175 211c-1-1-4-4-6-6s-4-3-6-5s-4-4-6-6s-4-4-6-6s-4-4-6-6s-4-4-6-6s-4-4-5-6s-4-4-6-7s-3-4-5-6s-3-5-4-7s-3-5-5-7s-3-5-4-7s-3-5-4-8s-3-5-4-7s-3-5-4-8s-3-6-4-7M-238 140c0-1-3-5-4-8s-3-4-4-7s-3-5-4-7s-2-5-4-8s-2-5-3-8s-2-5-3-7s-2-6-3-8s-2-6-3-8s-2-6-3-8s-1-6-2-8s-1-6-2-9s-1-5-2-8s0-6-1-8s-1-6-1-9s-1-5-1-8s0-7 0-9M22 300c-1 1-6 1-9 1s-6 1-9 1s-6 0-9 0s-6 0-9 0s-6 0-9 0s-7-1-10-1s-6-1-9-1s-6-1-9-1s-6-1-9-2s-6-1-9-2s-6-1-9-2s-6-2-9-3s-6-1-9-2s-5-2-8-3s-6-3-9-4s-7-3-8-3M-186 240c-1-1-5-4-8-6s-4-4-7-6s-4-4-7-6s-4-4-6-6s-5-4-7-6s-4-5-7-7s-4-5-6-7s-4-4-6-7s-4-5-6-7s-4-5-5-8s-4-5-6-7s-3-5-5-8s-3-5-5-8s-3-5-4-8s-3-6-5-8s-3-7-4-9"/><path fill-opacity="0.30" d="M0-243c4 0 6.5 0 10.5 .5s10 1 14 1.5s6 1 10 1.5s10.5 1.5 14.5 2s5 1 9 2s11 2.5 14.5 3.5s5 1.5 9 3s8 3 14.5 6s14.5 7 21.5 11s14 8.5 20.5 13.5s13.5 10 19.5 15s11.5 11.5 17 17.5s10.5 12.5 15.5 19s9 13.5 13.5 20.5s8 14 11 21s6.5 15 9 23s4.5 15 6 23s3 16 4 23.5s1.5 16 1.5 24s0 16-1 24s-1.5 15.5-3 23.5s-3 15.5-5 23s-5 15-7.5 22.5s-6.5 14.5-10 21.5s-7.5 13.5-11.5 20s-9 13-13.5 19.5s-10.5 12-16 17.5s-11 11-16.5 16s-12 10.5-18.5 15s-12.5 9.5-19.5 13.5s-13.5 8-20.5 11.5s-14.5 6.5-22 9.5s-15 5-23 7.5s-18 4-23.5 4.5s-3.5 1-7.5 1s-12.5 1-16.5 1s-3 0-7 0s-13-1-17-1.5s-2.5-.5-6.5-1s-14-1.5-17.5-2s-2 0-6-1s-14-3.5-18-4.5s-1 0-5-1.5s-11-4-17.5-7s-15-6.5-22-10.5s-14.5-8-21-12.5s-16-12-19.5-14.5s2.5 2-.5-.5s-12-10.5-17.5-16.5s-12.5-15-15.5-18s2.5 2.5 0-.5s-12-15-14.5-18.5s1.5 2.5-.5-1s-10-16-12-19.5s0 0-.5-1.5s-2-3.5-3.5-7s-5.5-11.5-7-15.5s-1-3-2.5-7s-3.5-12.5-4.5-16.5s-1-2.5-2-6.5s-3-13.5-4-17.5s-1-2-1.5-6s-1.5-15-2-18.5s0-3.5 0-4.5s0 2 0-1.5s0-15 .5-19s-.5 .5 0-3.5s3-17 3.5-21s-.5 1 .5-3s3.5-17 4.5-21s-1 1 .5-3s5.5-17 7-20.5s-1 1.5 .5-2s5.5-14 9.5-21s7.5-14 12-21s9-14 14-20.5s10.5-13 16-19s11.5-12 17.5-17s13-10.5 19.5-15.5s14-9 21-13s14.5-7.5 22-11s15.5-6 23.5-8.5s16-4 24-5.5s18.5-2.5 24.5-3.5s7-.5 11-1s9.5 0 13.5 0zM0-241.5c-5.5 0-10.5 .5-16 1s-10.5 .5-15.5 1.5s-10.5 1.5-15.5 2.5s-10.5 2-15.5 3s-10.5 3-15.5 4.5s-10 3.5-14.5 5.5s-10 4-14.5 6.5s-9.5 4.5-14 7.5s-9 5-13.5 8s-9 6-13 9s-8.5 6.5-12.5 10s-7.5 7.5-11.5 11s-7 8-10.5 12s-7 8-10 12s-6.5 8.5-9 13s-6 9-8.5 13.5s-5.5 9-8 14s-4.5 9.5-6.5 14s-4 10-6 15s-3.5 10-5 15s-2.5 10.5-4 15.5s-2 10.5-2.5 15.5s-1.5 10.5-2 16s-.5 10.5-.5 16s0 10.5 .5 16s1 10.5 1.5 16s2 10.5 3 15.5s2.5 10.5 4 15.5s3 10 5 15s4 10 6 15s4.5 9.5 7 14s5 9.5 7.5 14s5.5 9 8.5 13s6.5 8.5 9.5 13s7 8 10.5 11.5s7.5 7.5 11.5 11s7.5 7 11.5 10.5s8 6.5 12.5 10s8.5 6 12.5 8.5s9 5.5 13.5 8.5s9.5 4.5 14 7s9.5 4.5 14.5 6.5s9.5 3.5 14.5 5.5s10 3 15 4.5s10 2.5 15 3.5s10 1.5 15.5 2.5s10 1 15.5 1s10.5 .5 15.5 .5s10.5-.5 15.5-1s10.5-1 15.5-2s10-2 15-3.5s10-2.5 15-4.5s9.5-3.5 14.5-5.5s9-4 14-6s9-4.5 13.5-7s8.5-5 13-8s8-5.5 12.5-8.5s7.5-6 11.5-9.5s7.5-6.5 11.5-10s7.5-6.5 11-10s7-7.5 10-11s7-7.5 10-11.5s6-8 9-12s5.5-8.5 8-13s5-8.5 7.5-13s4.5-9 6.5-13.5s4-9.5 5.5-14s3.5-9.5 5-14.5s2.5-10 3.5-14.5s2-10 3-15s1.5-10 2-15.5s1-10 1-15s.5-10 0-15.5s-.5-10-1-15s-1-10.5-2-15.5s-1.5-10-2.5-15s-2.5-10-4-15s-3-10-4.5-15s-4-9.5-6-14s-4.5-9.5-7.5-14s-5-9-7.5-13.5s-6-8.5-9-13s-6-8.5-9.5-12.5s-6.5-8-10-12s-7.5-7.5-11.5-11s-7.5-7-12-10s-8-6.5-12.5-9.5s-8.5-6-13-8.5s-9.5-5.5-14-8s-9.5-4.5-14.5-6.5s-9.5-4-14.5-5.5s-10.5-3.5-15.5-4.5s-10-2.5-15.5-3.5s-10-2-15.5-2.5s-10.5-1-15.5-1.5s-10.5-.5-16-.5z"/><path fill-opacity="0.28" d="M0-340.5c8 0 16 0 24.5 1s16 1.5 24 2.5s16 2.5 24 4.5s15.5 3.5 23.5 6s15.5 5 23 7.5s15 6 22.5 9.5s14 7.5 21 11.5s14 8.5 21 12.5s13 9.5 19.5 14.5s12.5 10 18.5 15.5s11.5 11 17 17s11 11.5 16 18s10 12.5 14.5 19s9 13.5 13.5 20s8 14 11.5 21s7.5 14 10.5 21.5s5.5 15 8 22.5s4.5 15 6.5 23s3.5 15.5 5 23s2.5 15.5 3.5 23.5s1 15.5 1.5 23.5s0 15.5 0 23.5s-1 15.5-2 23.5s-1.5 15.5-3 23s-3 15.5-4.5 23s-4 15-6 22.5s-5 14.5-8 22s-6 14.5-9.5 21.5s-7 13.5-10.5 20.5s-8 13-12 19.5s-9 13-13.5 19s-10 12-15 18s-10.5 11-16 16.5s-11 11-16.5 16s-12 10-18 15s-12 9.5-18.5 14s-12.5 9-19.5 13s-13.5 7.5-20.5 11s-14 7-21 10s-14.5 6.5-22 9s-15 5-22.5 7.5s-15.5 4-23 5.5s-15.5 2.5-23.5 3.5s-18.5 1.5-24 1.5s-5 0-9 0s-11 0-15 0s-5-.5-9-.5s-11-.5-15-1s-4.5-.5-8.5-1s-11.5-2.5-15-3.5s-4.5-1-8.5-2s-11-3-15-4.5s-4-1-7.5-2s-9-3-15-5.5s-15-5.5-22.5-9s-14.5-6.5-21.5-10.5s-14-7.5-20.5-12s-13.5-9-20-13.5s-14-10.5-19-15s-9-8-12-10.5s-3-3-6-5.5s-8.5-8.5-11.5-11s-3-3-6-6s-8-8.5-10.5-11.5s-3-3.5-5.5-6.5s-6.5-9.5-8.5-13s-3-4-5-7s-6-10-8-13.5s-2-2.5-4.5-7.5s-7.5-14-11.5-21.5s-6.5-14.5-10-22s-6-15.5-8.5-23s-4.5-15.5-6.5-23.5s-3.5-16-4.5-24s-2.5-16.5-3-24.5s-1-16.5-1-24.5s.5-16.5 1-24.5s1.5-16.5 3-24.5s2.5-16 4.5-24s4.5-15.5 6.5-23.5s5.5-15.5 8.5-23s6-15 9.5-22.5s7.5-14.5 11.5-21.5s8-14 12.5-20.5s9-13.5 13.5-20s10-13 15-19.5s11-12 16.5-18s11.5-11.5 17.5-17s12.5-10.5 19-15.5s13.5-9 20-13.5s14-8.5 21-12.5s14.5-7.5 22-11s15-6.5 22.5-9.5s15.5-5 23-7.5s16-4 24-5.5s16-2.5 24-4s16-1.5 24-2s16.5-1 24.5-1zM0-339c-7.5 0-15 0-22 .5s-15 1-22.5 2s-14.5 2-22 3s-14.5 3-21.5 5s-14.5 3.5-21.5 6s-14 5-21 8s-13.5 6-20 9.5s-13 7-19.5 11s-12.5 7.5-18.5 11.5s-12 8.5-18 13.5s-11.5 9-17 14s-11 10.5-16 15.5s-10 11-14.5 16.5s-9.5 11.5-14 17.5s-8.5 12-12.5 18s-8 12.5-12 18.5s-7.5 13-10.5 19.5s-6.5 13.5-9.5 20s-6 13.5-8.5 20.5s-4.5 14-6.5 21s-4 14.5-6 21.5s-3 15-4 22s-1.5 15-2 22s-1 15-1 22.5s.5 15 1 22.5s1.5 14.5 2.5 22s2 14.5 4 22s3 14 5.5 21.5s4.5 14 7 21s5.5 13.5 8.5 20s6.5 13.5 9.5 20s7 13 11 19.5s7.5 12.5 11.5 18.5s8.5 12 13 17.5s9.5 11.5 14.5 17s10 10.5 15.5 15.5s10.5 10.5 16 15s11 9.5 17 14s12 8.5 18 12.5s12 8 18.5 11.5s13 7 19.5 10s13.5 6 20 9s13.5 5 20.5 7.5s14 4 21 6s14.5 3.5 21.5 4.5s14.5 2.5 21.5 3.5s14.5 1 22 1.5s14.5 0 21.5 0s14.5-.5 21.5-1.5s14.5-1.5 21.5-3s14.5-3 21-4.5s14-4 21-6.5s13.5-4.5 20-7.5s13-5.5 19.5-8s13-6.5 19-9.5s12.5-7 18.5-11s12-7.5 17.5-11.5s11.5-8.5 17-13s11-9 16-13.5s10.5-9.5 15.5-14.5s10-10 14.5-15.5s9-10.5 13.5-16s8.5-11.5 12.5-17s7.5-12 11-18s7-12.5 10-18.5s6.5-13 9-19.5s5.5-13 8-19.5s4.5-13.5 6-20s3.5-14 5-21s3-13.5 4-20.5s2-14 2.5-21s1.5-14.5 1.5-21.5s.5-14 .5-21.5s-1-14-1.5-21s-1.5-14.5-2.5-21.5s-2.5-14-4-21s-3.5-14-5.5-21s-4-14-6.5-20.5s-5.5-13.5-8.5-20s-6.5-13-10-19.5s-7-12.5-11-18.5s-8-12.5-12.5-18s-8.5-12-13-17.5s-9.5-11-14.5-16.5s-10-10.5-15.5-15.5s-11-9.5-17-14s-11.5-9-17.5-13s-12-8.5-18.5-12s-12.5-7.5-19-11s-13.5-6.5-20-9.5s-13.5-5.5-20.5-8s-14-4.5-21-6.5s-14.5-4-21.5-5.5s-14.5-3-22-4s-14.5-2-22-2.5s-14.5-1-22-1z"/><use href="#gbe1f41a-o" fill="none" stroke="currentColor" stroke-opacity=".34" stroke-width=".8"/></g><g stroke="none" style="--f:0.82;--c:0.5;--v:0;--k:currentColor;--o0:0.78;--w0:1.0;--o1:0.585;--w1:0.7;--o2:0.78;--w2:0.8;--o3:0.5459999999999999;--w3:0.7"><g style="--a:.97;--b:.74;--c:.48;--d:.48;--e:.48;--f:.74;--g:.97;--h:.97"><use href="#gbe1f41a-s0" transform="matrix(.1425 -.9898 .9898 .1425 35.07 -243.6)"/></g><g style="--a:.48;--b:.74;--c:.97;--d:.97;--e:.97;--f:.74;--g:.48;--h:.48"><use href="#gbe1f41a-s1" transform="matrix(-.1281 .9918 -.9918 -.1281 -31.12 240.86)"/></g><g style="--a:.74;--b:.97;--c:.97;--d:.97;--e:.74;--f:.48;--g:.48;--h:.48"><use href="#gbe1f41a-s2" transform="matrix(-.7894 .6138 -.6138 -.7894 -187.38 158.48)"/><use href="#gbe1f41a-s2" transform="matrix(-.7894 .6138 -.6138 -.7894 -193.57 150.52)"/><use href="#gbe1f41a-s2" transform="matrix(-.7894 .6138 -.6138 -.7894 -199.76 142.56)"/></g><g style="--a:.74;--b:.97;--c:.97;--d:.97;--e:.74;--f:.48;--g:.48;--h:.48"><use href="#gbe1f41a-s3" transform="matrix(-.7894 .6138 -.6138 -.7894 -203.58 158.3)"/></g><g style="--a:.97;--b:.97;--c:.97;--d:.74;--e:.48;--f:.48;--g:.48;--h:.74"><use href="#gbe1f41a-s4" transform="matrix(-.9748 .2231 -.2231 -.9748 -241.53 55.28)"/></g><g style="--a:.97;--b:.97;--c:.97;--d:.74;--e:.48;--f:.48;--g:.48;--h:.74"><use href="#gbe1f41a-s5" transform="matrix(-.9864 -.1646 .1646 -.9864 -244.63 -40.82)"/></g><g style="--a:.97;--b:.74;--c:.48;--d:.48;--e:.48;--f:.74;--g:.97;--h:.97"><use href="#gbe1f41a-s8" transform="matrix(.1167 -.9932 .9932 .1167 32.59 -277.32)"/></g><g style="--a:.97;--b:.74;--c:.48;--d:.48;--e:.48;--f:.74;--g:.97;--h:.97"><use href="#gbe1f41a-s10" transform="matrix(.1167 -.9932 .9932 .1167 33.93 -288.67)"/></g><g style="--a:.48;--b:.74;--c:.97;--d:.97;--e:.97;--f:.74;--g:.48;--h:.48"><use href="#gbe1f41a-s13" transform="matrix(-.1316 .9913 -.9913 -.1316 -36.27 273.14)"/></g><g style="--a:.48;--b:.74;--c:.97;--d:.97;--e:.97;--f:.74;--g:.48;--h:.48"><use href="#gbe1f41a-s14" transform="matrix(-.1316 .9913 -.9913 -.1316 -37.75 284.31)"/></g><g style="--a:.74;--b:.97;--c:.97;--d:.97;--e:.74;--f:.48;--g:.48;--h:.48"><use href="#gbe1f41a-s17" transform="matrix(-.8048 .5936 -.5936 -.8048 -224.01 165.22)"/></g><g style="--a:.74;--b:.97;--c:.97;--d:.97;--e:.74;--f:.48;--g:.48;--h:.48"><use href="#gbe1f41a-s14" transform="matrix(-.8048 .5936 -.5936 -.8048 -233.17 171.97)"/></g><g style="--a:.97;--b:.97;--c:.97;--d:.97;--e:.48;--f:.48;--g:.48;--h:.48"><use href="#gbe1f41a-s19" transform="matrix(-.9589 .2838 -.2838 -.9589 -269.03 79.64)"/></g><g style="--a:.48;--b:.74;--c:.97;--d:.97;--e:.97;--f:.74;--g:.48;--h:.48"><use href="#gbe1f41a-s20" transform="matrix(-.1679 .9858 -.9858 -.1679 -51.36 301.51)"/></g><g style="--a:.48;--b:.74;--c:.97;--d:.97;--e:.97;--f:.74;--g:.48;--h:.48"><use href="#gbe1f41a-s22" transform="matrix(-.1679 .9858 -.9858 -.1679 -53.53 314.22)"/></g><g style="--a:.74;--b:.97;--c:.97;--d:.97;--e:.74;--f:.48;--g:.48;--h:.48"><use href="#gbe1f41a-s23" transform="matrix(-.7854 .619 -.619 -.7854 -233.45 202.3)"/><use href="#gbe1f41a-s23" transform="matrix(-.7854 .619 -.619 -.7854 -242.36 190.99)"/><use href="#gbe1f41a-s23" transform="matrix(-.7854 .619 -.619 -.7854 -251.27 179.68)"/></g><use href="#gbe1f41a-rl" fill-opacity="0.74"/><use href="#gbe1f41a-rm" fill-opacity="0.6"/><use href="#gbe1f41a-rs" fill-opacity="0.42"/></g></g></svg>