<svg xmlns="http://www.w3.org/2000/svg" viewBox="0 0 984 978" width="984" height="978" font-family="Georgia, serif">
<style>:root{--ink:#2d2618;--paper:#f3ecdc;--sub:#6b5d45}@media (prefers-color-scheme: dark){:root{--ink:#eadfc6;--paper:#1c1812;--sub:#a8987a}}svg{background:var(--paper)} .m polyline,.m polygon{fill:none;stroke:var(--ink);stroke-width:2.6;stroke-linecap:round;stroke-linejoin:round}.m .solid{fill:var(--ink);stroke:var(--ink)} text{fill:var(--ink)} .sub{fill:var(--sub)}</style>
<text x="20" y="34" font-size="22">The first marks</text>
<text x="20" y="56" font-size="13" class="sub">the sign-set of the first tongue, drawn in no hand of either people: one even stroke, no chisel-foot, no knife-taper</text>
<g class="m"><polyline points="73.0,140.8 73.0,83.2"/></g>
<text x="73" y="166" font-size="12.5" text-anchor="middle">the Stem</text>
<text x="73" y="182" font-size="11.5" text-anchor="middle" font-style="italic" class="sub">*tolm-</text>
<g class="m"><polyline points="165.4,112.0 216.6,112.0"/></g>
<text x="191" y="166" font-size="12.5" text-anchor="middle">the Bar</text>
<text x="191" y="182" font-size="11.5" text-anchor="middle" font-style="italic" class="sub">*hosk-</text>
<g class="m"><polyline points="309.0,140.8 309.0,83.2"/>
<polyline points="289.8,97.9 328.2,97.9"/></g>
<text x="309" y="166" font-size="12.5" text-anchor="middle">the Fore</text>
<text x="309" y="182" font-size="11.5" text-anchor="middle" font-style="italic" class="sub">*re-il</text>
<g class="m"><polyline points="427.0,140.8 427.0,89.0"/>
<polyline points="407.8,85.1 446.2,85.1"/></g>
<text x="427" y="166" font-size="12.5" text-anchor="middle">the End</text>
<text x="427" y="182" font-size="11.5" text-anchor="middle" font-style="italic" class="sub">*kul-</text>
<g class="m"><polyline points="545.0,140.8 545.0,110.7"/></g>
<text x="545" y="166" font-size="12.5" text-anchor="middle">the Post</text>
<text x="545" y="182" font-size="11.5" text-anchor="middle" font-style="italic" class="sub">*gann-</text>
<g class="m"><polyline points="647.0,140.8 647.0,94.1"/>
<polyline points="679.0,140.8 679.0,94.1"/>
<polyline points="640.0,89.0 686.0,89.0"/></g>
<text x="663" y="166" font-size="12.5" text-anchor="middle">the Door</text>
<text x="663" y="182" font-size="11.5" text-anchor="middle" font-style="italic" class="sub">*gann-aʔ</text>
<g class="m"><polyline points="774.6,140.8 774.6,102.4"/>
<polyline points="774.6,102.4 774.7,100.6 775.2,98.7 775.9,97.0 776.8,95.4 778.0,94.0 779.4,92.8 780.9,91.7 782.6,91.0 784.4,90.5 786.2,90.3 788.1,90.3 789.9,90.7 791.7,91.3 793.3,92.1 794.8,93.3 796.1,94.6 797.2,96.1 798.0,97.7 798.6,99.5 798.9,101.3 798.9,103.2 798.6,105.0 798.1,106.8 797.3,108.5"/></g>
<text x="781" y="166" font-size="12.5" text-anchor="middle">the Curl</text>
<text x="781" y="182" font-size="11.5" text-anchor="middle" font-style="italic" class="sub">*oð-</text>
<g class="m"><polyline points="893.9,140.8 893.9,104.3"/>
<polyline points="906.7,95.4 906.7,82.6"/></g>
<text x="899" y="166" font-size="12.5" text-anchor="middle">the Lone Mark</text>
<text x="899" y="182" font-size="11.5" text-anchor="middle" font-style="italic" class="sub">*itt-</text>
<g class="m"><polyline points="61.5,288.8 61.5,260.0"/>
<polyline points="84.5,288.8 84.5,260.0"/>
<polyline points="53.8,247.2 92.2,247.2"/></g>
<text x="73" y="314" font-size="12.5" text-anchor="middle">the Upon</text>
<text x="73" y="330" font-size="11.5" text-anchor="middle" font-style="italic" class="sub">*um-</text>
<g class="m"><polyline points="191.0,288.8 191.0,257.4"/>
<polyline points="191.0,257.4 183.3,244.6 179.5,230.6"/>
<polyline points="191.0,257.4 206.4,238.2"/></g>
<text x="191" y="314" font-size="12.5" text-anchor="middle">the Split</text>
<text x="191" y="330" font-size="11.5" text-anchor="middle" font-style="italic" class="sub">*krask-</text>
<g class="m"><polyline points="296.2,288.8 296.2,261.3 321.8,261.3 321.8,231.2"/></g>
<text x="309" y="314" font-size="12.5" text-anchor="middle">the Course</text>
<text x="309" y="330" font-size="11.5" text-anchor="middle" font-style="italic" class="sub">*trenn-</text>
<g class="m"><polyline points="411.6,288.8 430.8,238.2"/>
<polyline points="424.4,234.4 453.9,234.4"/></g>
<text x="427" y="314" font-size="12.5" text-anchor="middle">the Bearer</text>
<text x="427" y="330" font-size="11.5" text-anchor="middle" font-style="italic" class="sub">*par-</text>
<g class="m"><polygon points="545.0,287.5 543.1,284.8 541.3,282.0 539.8,279.3 538.4,276.5 537.3,273.8 536.4,271.0 535.7,268.3 535.2,265.5 534.9,262.8 534.8,260.0 534.9,257.2 535.2,254.5 535.7,251.7 536.4,249.0 537.3,246.2 538.4,243.5 539.8,240.7 541.3,238.0 543.1,235.2 545.0,232.5 545.0,232.5 546.9,235.2 548.7,238.0 550.2,240.7 551.6,243.5 552.7,246.2 553.6,249.0 554.3,251.7 554.8,254.5 555.1,257.2 555.2,260.0 555.1,262.8 554.8,265.5 554.3,268.3 553.6,271.0 552.7,273.8 551.6,276.5 550.2,279.3 548.7,282.0 546.9,284.8 545.0,287.5"/></g>
<text x="545" y="314" font-size="12.5" text-anchor="middle">the Bough</text>
<text x="545" y="330" font-size="11.5" text-anchor="middle" font-style="italic" class="sub">*sul-</text>
<g class="m"><polygon points="642.5,280.5 683.5,280.5 683.5,239.5 642.5,239.5"/></g>
<text x="663" y="314" font-size="12.5" text-anchor="middle">the Square</text>
<text x="663" y="330" font-size="11.5" text-anchor="middle" font-style="italic" class="sub">*xreun-</text>
<g class="m"><polyline points="781.0,288.8 781.0,231.2"/>
<polyline points="755.4,260.0 758.0,255.9 760.5,254.2 763.1,255.9 765.6,260.0 768.2,264.1 770.8,265.8 773.3,264.1 775.9,260.0 778.4,255.9 781.0,254.2 783.6,255.9 786.1,260.0 788.7,264.1 791.2,265.8 793.8,264.1 796.4,260.0 798.9,256.0 801.5,254.2 804.0,255.9 806.6,260.0"/></g>
<text x="781" y="314" font-size="12.5" text-anchor="middle">the Breath Within</text>
<text x="781" y="330" font-size="11.5" text-anchor="middle" font-style="italic" class="sub">*molt-</text>
<g class="m"><polyline points="895.2,288.8 895.2,231.2"/>
<polyline points="895.2,271.5 916.9,262.6"/></g>
<text x="899" y="314" font-size="12.5" text-anchor="middle">the Breathing</text>
<text x="899" y="330" font-size="11.5" text-anchor="middle" font-style="italic" class="sub">*hoss-</text>
<g class="m"><polyline points="64.0,436.8 64.0,378.6"/>
<polyline points="64.0,378.6 87.1,378.6 96.0,387.5 97.3,397.8 92.2,406.7 82.0,411.8"/></g>
<text x="73" y="462" font-size="12.5" text-anchor="middle">the Sail</text>
<text x="73" y="478" font-size="11.5" text-anchor="middle" font-style="italic" class="sub">*gwemm-</text>
<g class="m"><polyline points="191.0,431.0 191.0,379.2"/>
<polyline points="168.6,436.2 213.4,436.2"/></g>
<text x="191" y="462" font-size="12.5" text-anchor="middle">the Bed</text>
<text x="191" y="478" font-size="11.5" text-anchor="middle" font-style="italic" class="sub">*loð-</text>
<g class="m"><polyline points="309.0,379.2 309.0,414.4"/>
<polyline points="309.0,414.4 293.6,434.9"/>
<polyline points="309.0,414.4 306.4,436.8"/>
<polyline points="309.0,414.4 326.9,432.3"/></g>
<text x="309" y="462" font-size="12.5" text-anchor="middle">the Roots</text>
<text x="309" y="478" font-size="11.5" text-anchor="middle" font-style="italic" class="sub">*ral-</text>
<g class="m"><polyline points="427.0,436.8 427.0,415.7"/>
<polyline points="427.0,400.3 427.0,379.2"/></g>
<text x="427" y="462" font-size="12.5" text-anchor="middle">the Gap</text>
<text x="427" y="478" font-size="11.5" text-anchor="middle" font-style="italic" class="sub">*onn-</text>
<g class="m"><polyline points="537.1,391.2 535.8,392.2 534.6,393.3 533.4,394.5 532.4,395.8 531.5,397.1 530.7,398.5 530.0,400.0 529.4,401.6 528.9,403.1 528.6,404.7 528.4,406.4 528.4,408.0 528.4,409.6 528.6,411.3 528.9,412.9 529.4,414.4 530.0,416.0 530.7,417.5 531.5,418.9 532.4,420.2 533.4,421.5 534.6,422.7 535.8,423.8 537.1,424.8"/>
<polyline points="552.9,424.8 554.2,423.8 555.4,422.7 556.6,421.5 557.6,420.2 558.5,418.9 559.3,417.5 560.0,416.0 560.6,414.4 561.1,412.9 561.4,411.3 561.6,409.6 561.6,408.0 561.6,406.4 561.4,404.7 561.1,403.1 560.6,401.6 560.0,400.0 559.3,398.5 558.5,397.1 557.6,395.8 556.6,394.5 555.4,393.3 554.2,392.2 552.9,391.2"/></g>
<text x="545" y="462" font-size="12.5" text-anchor="middle">the Cup</text>
<text x="545" y="478" font-size="11.5" text-anchor="middle" font-style="italic" class="sub">*tum-</text>
<g class="m"><polygon points="663.0,385.6 663.1,386.4 663.5,388.6 664.6,392.2 666.4,396.8 668.7,402.2 670.9,408.0 672.6,413.8 673.3,419.2 672.6,423.8 670.4,427.4 667.0,429.6 663.0,430.4 659.0,429.6 655.6,427.4 653.4,423.8 652.7,419.2 653.4,413.8 655.1,408.0 657.3,402.2 659.6,396.8 661.4,392.2 662.5,388.6 662.9,386.4 663.0,385.6"/></g>
<text x="663" y="462" font-size="12.5" text-anchor="middle">the Drop</text>
<text x="663" y="478" font-size="11.5" text-anchor="middle" font-style="italic" class="sub">*θar-</text>
<g class="m"><polyline points="781.0,408.0 781.0,379.8"/>
<polyline points="781.0,408.0 807.9,399.0"/>
<polyline points="781.0,408.0 797.6,431.0"/>
<polyline points="781.0,408.0 764.4,431.0"/>
<polyline points="781.0,408.0 754.1,399.0"/></g>
<text x="781" y="462" font-size="12.5" text-anchor="middle">the Star</text>
<text x="781" y="478" font-size="11.5" text-anchor="middle" font-style="italic" class="sub">*kris-</text>
<g class="m"><polygon points="886.2,379.8 911.8,379.8 899.0,418.2" class="solid"/>
<polyline points="899.0,418.2 899.0,436.8"/></g>
<text x="899" y="462" font-size="12.5" text-anchor="middle">the Wedge</text>
<text x="899" y="478" font-size="11.5" text-anchor="middle" font-style="italic" class="sub">*tass-</text>
<g class="m"><polyline points="73.0,584.8 73.0,556.0"/>
<polygon points="61.5,543.2 62.6,541.4 63.8,539.7 64.9,538.3 66.1,537.1 67.2,536.0 68.4,535.1 69.5,534.5 70.7,534.0 71.8,533.7 73.0,533.6 74.2,533.7 75.3,534.0 76.5,534.5 77.6,535.1 78.8,536.0 79.9,537.1 81.1,538.3 82.2,539.7 83.4,541.4 84.5,543.2 84.5,543.2 83.4,545.0 82.2,546.7 81.1,548.1 79.9,549.3 78.8,550.4 77.6,551.3 76.5,551.9 75.3,552.4 74.2,552.7 73.0,552.8 71.8,552.7 70.7,552.4 69.5,551.9 68.4,551.3 67.2,550.4 66.1,549.3 64.9,548.1 63.8,546.7 62.6,545.0 61.5,543.2"/></g>
<text x="73" y="610" font-size="12.5" text-anchor="middle">the Knot</text>
<text x="73" y="626" font-size="11.5" text-anchor="middle" font-style="italic" class="sub">*lanθ-</text>
<g class="m"><polygon points="171.8,527.2 210.2,527.2 191.0,582.9" class="solid"/></g>
<text x="191" y="610" font-size="12.5" text-anchor="middle">the Scar</text>
<text x="191" y="626" font-size="11.5" text-anchor="middle" font-style="italic" class="sub">*esθ-</text>
<g class="m"><polyline points="291.1,527.2 309.0,582.9 326.9,527.2"/></g>
<text x="309" y="610" font-size="12.5" text-anchor="middle">the Cut</text>
<text x="309" y="626" font-size="11.5" text-anchor="middle" font-style="italic" class="sub">*skeθ-</text>
<g class="m"><polyline points="411.6,582.9 442.4,529.1"/></g>
<text x="427" y="610" font-size="12.5" text-anchor="middle">the Lean</text>
<text x="427" y="626" font-size="11.5" text-anchor="middle" font-style="italic" class="sub">*iʔl-en-</text>
<g class="m"><polyline points="545.0,582.9 534.8,570.1 529.0,552.2 527.7,529.1"/>
<polyline points="545.0,582.9 555.2,570.1 561.0,552.2 562.3,529.1"/></g>
<text x="545" y="610" font-size="12.5" text-anchor="middle">the Mouth</text>
<text x="545" y="626" font-size="11.5" text-anchor="middle" font-style="italic" class="sub">*brenn-</text>
<g class="m"><polyline points="663.0,584.8 663.0,554.7"/>
<polyline points="648.9,540.6 649.0,542.5 649.4,544.3 650.0,546.0 650.8,547.7 651.8,549.2 653.0,550.6 654.4,551.8 656.0,552.8 657.6,553.6 659.4,554.2 661.2,554.6 663.0,554.7 664.8,554.6 666.6,554.2 668.4,553.6 670.0,552.8 671.6,551.8 673.0,550.6 674.2,549.2 675.2,547.7 676.0,546.0 676.6,544.3 677.0,542.5 677.1,540.6"/></g>
<text x="663" y="610" font-size="12.5" text-anchor="middle">the Hand</text>
<text x="663" y="626" font-size="11.5" text-anchor="middle" font-style="italic" class="sub">*wind-</text>
<g class="m"><polygon points="781.0,570.7 779.2,569.2 777.5,567.8 776.1,566.3 774.9,564.8 773.8,563.4 772.9,561.9 772.3,560.4 771.8,558.9 771.5,557.5 771.4,556.0 771.5,554.5 771.8,553.1 772.3,551.6 772.9,550.1 773.8,548.6 774.9,547.2 776.1,545.7 777.5,544.2 779.2,542.8 781.0,541.3 781.0,541.3 782.8,542.8 784.5,544.2 785.9,545.7 787.1,547.2 788.2,548.6 789.1,550.1 789.7,551.6 790.2,553.1 790.5,554.5 790.6,556.0 790.5,557.5 790.2,558.9 789.7,560.4 789.1,561.9 788.2,563.4 787.1,564.8 785.9,566.3 784.5,567.8 782.8,569.2 781.0,570.7"/>
<polyline points="781.0,584.8 781.0,570.7"/>
<polyline points="781.0,541.3 781.0,527.2"/></g>
<text x="781" y="610" font-size="12.5" text-anchor="middle">the Eye</text>
<text x="781" y="626" font-size="11.5" text-anchor="middle" font-style="italic" class="sub">*neʔs-</text>
<g class="m"><polygon points="899.0,553.4 897.3,552.3 895.8,551.1 894.4,550.0 893.3,548.8 892.3,547.7 891.5,546.5 890.8,545.4 890.4,544.2 890.1,543.1 890.0,541.9 890.1,540.8 890.4,539.6 890.8,538.5 891.5,537.3 892.3,536.2 893.3,535.0 894.4,533.9 895.8,532.7 897.3,531.6 899.0,530.4 899.0,530.4 900.7,531.6 902.2,532.7 903.6,533.9 904.7,535.0 905.7,536.2 906.5,537.3 907.2,538.5 907.6,539.6 907.9,540.8 908.0,541.9 907.9,543.1 907.6,544.2 907.2,545.4 906.5,546.5 905.7,547.7 904.7,548.8 903.6,550.0 902.2,551.1 900.7,552.3 899.0,553.4"/>
<polyline points="899.0,553.4 883.6,580.3"/>
<polyline points="899.0,553.4 914.4,580.3"/></g>
<text x="899" y="610" font-size="12.5" text-anchor="middle">the Seed</text>
<text x="899" y="626" font-size="11.5" text-anchor="middle" font-style="italic" class="sub">*wus-</text>
<g class="m"><polyline points="73.0,732.8 73.0,675.2"/>
<polyline points="73.0,716.8 88.4,704.0"/>
<polyline points="73.0,704.0 57.6,691.2"/>
<polyline points="73.0,691.2 87.1,679.7"/></g>
<text x="73" y="758" font-size="12.5" text-anchor="middle">the Sprout</text>
<text x="73" y="774" font-size="11.5" text-anchor="middle" font-style="italic" class="sub">*taw-</text>
<g class="m"><polyline points="180.8,675.2 180.8,709.1 201.2,720.6 201.2,732.2 217.9,732.2"/></g>
<text x="191" y="758" font-size="12.5" text-anchor="middle">the Kneel</text>
<text x="191" y="774" font-size="11.5" text-anchor="middle" font-style="italic" class="sub">*roθ-</text>
<g class="m"><polyline points="286.0,674.6 293.6,689.9 302.6,702.7 309.0,709.1"/>
<polyline points="326.9,684.8 320.5,696.3 314.1,704.6 309.0,709.1"/>
<polyline points="309.0,709.1 309.0,732.8"/></g>
<text x="309" y="758" font-size="12.5" text-anchor="middle">the Bond</text>
<text x="309" y="774" font-size="11.5" text-anchor="middle" font-style="italic" class="sub">*ol</text>
<g class="m"><polyline points="402.7,710.4 451.3,710.4"/>
<polyline points="402.7,695.0 451.3,695.0"/></g>
<text x="427" y="758" font-size="12.5" text-anchor="middle">the Still</text>
<text x="427" y="774" font-size="11.5" text-anchor="middle" font-style="italic" class="sub">*waʔr-</text>
<g class="m"><polyline points="545.0,732.8 545.0,707.8"/>
<polyline points="545.0,701.4 545.0,689.9"/>
<polyline points="545.0,684.8 545.0,679.7"/>
<circle cx="545.0" cy="675.2" r="1.6" class="solid"/></g>
<text x="545" y="758" font-size="12.5" text-anchor="middle">the Fade</text>
<text x="545" y="774" font-size="11.5" text-anchor="middle" font-style="italic" class="sub">*feʔ-</text>
<g class="m"><polyline points="642.5,710.4 642.5,700.2"/>
<polyline points="656.0,702.7 656.0,692.5"/>
<polyline points="670.0,710.4 670.0,700.2"/>
<polyline points="683.5,702.7 683.5,692.5"/></g>
<text x="663" y="758" font-size="12.5" text-anchor="middle">the Pale</text>
<text x="663" y="774" font-size="11.5" text-anchor="middle" font-style="italic" class="sub">*lenn-</text>
<g class="m"><polyline points="781.0,732.8 781.0,695.0"/>
<polyline points="801.0,692.5 799.9,690.8 798.6,689.2 797.3,687.7 795.8,686.4 794.2,685.1 792.5,684.0 790.7,683.1 788.9,682.3 787.0,681.7 785.0,681.3 783.0,681.0 781.0,681.0 779.0,681.0 777.0,681.3 775.0,681.7 773.1,682.3 771.3,683.1 769.5,684.0 767.8,685.1 766.2,686.4 764.7,687.7 763.4,689.2 762.1,690.8 761.0,692.5"/></g>
<text x="781" y="758" font-size="12.5" text-anchor="middle">the Rim</text>
<text x="781" y="774" font-size="11.5" text-anchor="middle" font-style="italic" class="sub">*enθ-</text>
<g class="m"><polyline points="892.6,732.8 892.6,675.2"/>
<polyline points="894.5,685.4 901.6,689.3 894.5,693.1"/>
<polyline points="894.5,699.5 901.6,703.4 894.5,707.2"/></g>
<text x="899" y="758" font-size="12.5" text-anchor="middle">the Tally</text>
<text x="899" y="774" font-size="11.5" text-anchor="middle" font-style="italic" class="sub">*kail-</text>
<g class="m"><polyline points="51.2,864.8 94.8,864.8"/>
<polygon points="58.9,844.3 60.3,842.3 61.7,840.4 63.1,838.8 64.6,837.4 66.0,836.2 67.4,835.2 68.8,834.4 70.2,833.9 71.6,833.5 73.0,833.4 74.4,833.5 75.8,833.9 77.2,834.4 78.6,835.2 80.0,836.2 81.4,837.4 82.9,838.8 84.3,840.4 85.7,842.3 87.1,844.3 87.1,844.3 85.7,846.4 84.3,848.2 82.9,849.9 81.4,851.3 80.0,852.5 78.6,853.5 77.2,854.2 75.8,854.8 74.4,855.1 73.0,855.2 71.6,855.1 70.2,854.8 68.8,854.2 67.4,853.5 66.0,852.5 64.6,851.3 63.1,849.9 61.7,848.2 60.3,846.4 58.9,844.3"/></g>
<text x="73" y="906" font-size="12.5" text-anchor="middle">the Gift</text>
<text x="73" y="922" font-size="11.5" text-anchor="middle" font-style="italic" class="sub">*wi</text>
<g class="m"><polyline points="191.0,880.8 191.0,859.7"/>
<polygon points="185.2,857.8 196.8,857.8 196.8,846.2 185.2,846.2"/>
<polyline points="191.0,844.3 191.0,823.2"/></g>
<text x="191" y="906" font-size="12.5" text-anchor="middle">the Whole</text>
<text x="191" y="922" font-size="11.5" text-anchor="middle" font-style="italic" class="sub">*weinn-</text>
<g class="m"><polyline points="302.6,880.8 302.6,845.6 325.6,825.1"/></g>
<text x="309" y="906" font-size="12.5" text-anchor="middle">the Turn</text>
<text x="309" y="922" font-size="11.5" text-anchor="middle" font-style="italic" class="sub">*neθ-</text>
<g class="m"><polyline points="420.6,880.8 420.6,823.2"/>
<polygon points="421.9,825.1 448.8,825.1 421.9,849.4" class="solid"/></g>
<text x="427" y="906" font-size="12.5" text-anchor="middle">the Blade</text>
<text x="427" y="922" font-size="11.5" text-anchor="middle" font-style="italic" class="sub">*kriθθ-</text>
<g class="m"><polyline points="532.2,877.6 532.2,826.4"/>
<polyline points="545.0,877.6 545.0,826.4"/>
<polyline points="557.8,877.6 557.8,826.4"/></g>
<text x="545" y="906" font-size="12.5" text-anchor="middle">the Three</text>
<text x="545" y="922" font-size="11.5" text-anchor="middle" font-style="italic" class="sub">*ros-</text>
</svg>